<svg width="21" height="22" viewBox="0 0 21 22" fill="none" xmlns="http://www.w3.org/2000/svg">
<g clip-path="url(#clip0_632_214)">
<path d="M16.1506 8.26922C16.7432 7.79758 19.1643 5.73436 19.1643 3.51367C19.1643 1.84926 17.8151 0.5 16.1506 0.5C14.4862 0.5 13.137 1.84926 13.137 3.51367C13.137 5.73399 15.5566 7.79647 16.1506 8.26922ZM13.8904 3.41722C13.8904 2.16891 14.9023 1.15697 16.1506 1.15697C17.3989 1.15697 18.4109 2.16891 18.4109 3.41722C18.4109 4.66553 17.3989 5.67746 16.1506 5.67746C14.9029 5.67623 13.8916 4.66504 13.8904 3.41722Z" fill="#747288"/>
<path d="M1.08234 9.6329C1.08398 11.1926 2.34795 12.4566 3.90763 12.4582H17.0924C17.8206 12.4582 18.4109 13.0485 18.4109 13.7767C18.4109 14.5048 17.8206 15.0952 17.0924 15.0952H5.60283C4.69097 15.0957 3.82836 15.5091 3.25672 16.2195C2.68507 16.9299 2.46579 17.861 2.66035 18.7519L3.2465 18.0414C3.468 17.7928 3.81105 17.6907 4.13252 17.7777C4.17075 17.6094 4.23738 17.4487 4.32955 17.3027C4.6054 16.8659 5.08619 16.6013 5.60283 16.602H17.0924C18.6528 16.602 19.9177 15.3371 19.9177 13.7767C19.9177 12.2163 18.6528 10.9514 17.0924 10.9514H3.90763C3.17946 10.9514 2.58915 10.3611 2.58915 9.63294C2.58915 8.90477 3.17946 8.31446 3.90763 8.31446H15.045C14.5417 7.85485 14.0811 7.35053 13.6689 6.80765H3.90763C2.34795 6.80925 1.08398 8.07322 1.08234 9.6329Z" fill="#747288"/>
<path d="M16.1507 4.92403C16.9829 4.92403 17.6575 4.24941 17.6575 3.41722C17.6575 2.58503 16.9829 1.9104 16.1507 1.9104C15.3185 1.9104 14.6439 2.58503 14.6439 3.41722C14.6439 4.24941 15.3185 4.92403 16.1507 4.92403Z" fill="#747288"/>
<path d="M1.59691 21.4906L3.61229 20.7582C3.80322 20.689 4.01241 20.689 4.20334 20.7582L6.21835 21.4906C6.26186 21.5113 6.31398 21.4965 6.34002 21.4559C6.36297 21.4298 6.36095 21.3902 6.33549 21.3666L4.31933 18.9233C4.31368 18.9176 4.30915 18.9112 4.30387 18.9048L3.98744 18.5213C3.96709 18.4987 3.93804 18.4857 3.90759 18.4857C3.87714 18.4857 3.84809 18.4987 3.82774 18.5213L1.47973 21.3666C1.45427 21.3902 1.45225 21.4298 1.4752 21.4559C1.50116 21.4966 1.5534 21.5115 1.59691 21.4906Z" fill="#747288"/>
</g>
<defs>
<clipPath id="clip0_632_214">
<rect width="21" height="21" fill="white" transform="translate(0 0.5)"/>
</clipPath>
</defs>
</svg>
