<svg width="24" height="24" viewBox="0 0 24 24" fill="none" xmlns="http://www.w3.org/2000/svg">
<path fill-rule="evenodd" clip-rule="evenodd" d="M6.79293 17.0311C7.0653 18.4822 8.33339 19.5349 9.81023 19.5349H18.0048C19.0832 19.5349 19.9583 18.6597 19.9583 17.5814C19.9583 16.9418 19.9583 16.1157 19.9583 15.3488C19.9583 14.5351 19.6346 13.7537 19.0586 13.1777C18.4826 12.6028 17.7023 12.2791 16.8886 12.2791H12.2381C12.1031 12.2791 11.9881 12.1831 11.9635 12.0502L10.2311 2.52056C9.96539 1.06046 8.69395 0 7.21041 0C6.78958 0 6.34976 0 5.95348 0C5.37302 0 4.82158 0.258977 4.45097 0.705488C4.07925 1.15312 3.92632 1.74251 4.03348 2.31405L6.79293 17.0311ZM8.43944 16.7219L5.68 2.00484C5.66437 1.92335 5.68669 1.83963 5.73916 1.77488C5.79274 1.71126 5.87088 1.67442 5.95348 1.67442H7.21041C7.88465 1.67442 8.46288 2.15665 8.58344 2.81972C9.0679 5.48651 9.94976 10.3345 10.3159 12.3494C10.4856 13.2781 11.2938 13.9535 12.2381 13.9535H16.8886C17.258 13.9535 17.613 14.1008 17.8742 14.362C18.1366 14.6244 18.2839 14.9782 18.2839 15.3488V17.5814C18.2839 17.7354 18.1589 17.8605 18.0048 17.8605H9.81023C9.13934 17.8605 8.56334 17.3827 8.43944 16.7219Z" fill="#747288"/>
<path fill-rule="evenodd" clip-rule="evenodd" d="M11.1552 18.2545C11.1552 18.2545 10.2187 19.7503 9.43168 21.0106C9.0555 21.6134 9.0354 22.3725 9.37922 22.9931C9.72415 23.6149 10.3783 24 11.0882 24H18.5628C19.0239 24 19.4001 23.625 19.4001 23.1628C19.4001 22.7007 19.0239 22.3256 18.5628 22.3256H11.0882C10.9867 22.3256 10.8929 22.2709 10.8438 22.1816C10.7947 22.0934 10.798 21.9851 10.8516 21.8981L12.5751 19.1409C12.8196 18.749 12.7001 18.2322 12.3083 17.9877C11.9165 17.7433 11.3997 17.8616 11.1552 18.2545Z" fill="#747288"/>
<path fill-rule="evenodd" clip-rule="evenodd" d="M10.7493 9.48838H17.447C17.908 9.48838 18.2842 9.11331 18.2842 8.65117C18.2842 8.18903 17.908 7.81396 17.447 7.81396H10.7493C10.2872 7.81396 9.91211 8.18903 9.91211 8.65117C9.91211 9.11331 10.2872 9.48838 10.7493 9.48838Z" fill="#747288"/>
</svg>
