<svg width="23" height="22" viewBox="0 0 23 22" fill="none" xmlns="http://www.w3.org/2000/svg">
<g clip-path="url(#clip0_582_75)">
<path d="M21.4 10.2667H20.3256L20.8353 9.614C20.8945 9.53792 20.9382 9.45092 20.9638 9.35797C20.9894 9.26502 20.9964 9.16793 20.9845 9.07226C20.9726 8.97658 20.942 8.88419 20.8943 8.80036C20.8467 8.71653 20.7831 8.6429 20.707 8.58367C20.6309 8.52444 20.5439 8.48078 20.4509 8.45518C20.358 8.42957 20.2609 8.42253 20.1652 8.43445C20.0696 8.44636 19.9772 8.47701 19.8933 8.52463C19.8095 8.57226 19.7359 8.63592 19.6766 8.712L18.4666 10.2667H13.2702L16.9446 6.5923L18.8997 6.83614C19.0929 6.86045 19.2879 6.807 19.4417 6.68756C19.5955 6.56812 19.6956 6.39246 19.7199 6.19924C19.7442 6.00601 19.6908 5.81104 19.5713 5.65721C19.4519 5.50339 19.2762 5.40331 19.083 5.379L18.2609 5.2778L19.0207 4.51807C19.0907 4.45042 19.1466 4.3695 19.185 4.28003C19.2234 4.19056 19.2437 4.09433 19.2445 3.99696C19.2454 3.89959 19.2268 3.80303 19.1899 3.7129C19.1531 3.62278 19.0986 3.5409 19.0298 3.47205C18.9609 3.40319 18.879 3.34874 18.7889 3.31187C18.6988 3.27499 18.6022 3.25644 18.5048 3.25729C18.4075 3.25813 18.3112 3.27836 18.2218 3.31679C18.1323 3.35523 18.0514 3.4111 17.9837 3.48114L17.224 4.24087L17.121 3.4188C17.0967 3.22557 16.9966 3.04992 16.8428 2.93048C16.6889 2.81103 16.494 2.75759 16.3007 2.7819C16.1075 2.80621 15.9319 2.90629 15.8124 3.06011C15.693 3.21394 15.6395 3.40891 15.6638 3.60214L15.9077 5.5572L12.2333 9.22974V4.03334L13.788 2.82334C13.9416 2.70372 14.0415 2.52797 14.0655 2.33475C14.0896 2.14152 14.0359 1.94665 13.9163 1.793C13.7967 1.63935 13.6209 1.53951 13.4277 1.51545C13.2345 1.49138 13.0396 1.54506 12.886 1.66467L12.2333 2.17434V1.1C12.2333 0.90551 12.156 0.718984 12.0185 0.581457C11.881 0.44393 11.6945 0.366669 11.5 0.366669C11.3055 0.366669 11.119 0.44393 10.9814 0.581457C10.8439 0.718984 10.7666 0.90551 10.7666 1.1V2.17434L10.114 1.66467C10.0379 1.60544 9.95089 1.56178 9.85794 1.53618C9.76499 1.51057 9.6679 1.50353 9.57223 1.51545C9.47655 1.52736 9.38416 1.55801 9.30033 1.60563C9.2165 1.65325 9.14287 1.71692 9.08364 1.793C9.02441 1.86908 8.98075 1.95608 8.95515 2.04903C8.92954 2.14199 8.9225 2.23907 8.93442 2.33475C8.94633 2.43042 8.97698 2.52281 9.0246 2.60665C9.07222 2.69048 9.13589 2.76411 9.21197 2.82334L10.7666 4.03334V9.22974L7.09227 5.55537L7.33611 3.6003C7.36042 3.40707 7.30697 3.2121 7.18753 3.05828C7.06809 2.90446 6.89243 2.80438 6.69921 2.78007C6.50598 2.75576 6.31101 2.8092 6.15718 2.92864C6.00336 3.04808 5.90328 3.22374 5.87897 3.41697L5.77777 4.23904L5.01804 3.48114C4.87973 3.34755 4.69449 3.27364 4.50221 3.27531C4.30993 3.27698 4.126 3.3541 3.99004 3.49007C3.85407 3.62603 3.77695 3.80996 3.77528 4.00224C3.77361 4.19452 3.84752 4.37976 3.98111 4.51807L4.74084 5.2778L3.91877 5.379C3.8231 5.39104 3.73073 5.42181 3.64694 5.46954C3.56315 5.51728 3.48959 5.58105 3.43045 5.65721C3.311 5.81104 3.25756 6.00601 3.28187 6.19924C3.29391 6.29491 3.32467 6.38728 3.37241 6.47107C3.42015 6.55486 3.48392 6.62842 3.56008 6.68756C3.71391 6.807 3.90888 6.86045 4.10211 6.83614L6.05717 6.5923L9.72971 10.2667H4.53331L3.32331 8.712C3.26408 8.63592 3.19045 8.57226 3.10662 8.52463C3.02278 8.47701 2.93039 8.44636 2.83472 8.43445C2.73904 8.42253 2.64196 8.42957 2.549 8.45518C2.45605 8.48078 2.36905 8.52444 2.29297 8.58367C2.21689 8.6429 2.15322 8.71653 2.1056 8.80036C2.05798 8.88419 2.02733 8.97658 2.01542 9.07226C1.99135 9.26548 2.04503 9.46035 2.16464 9.614L2.6743 10.2667H1.59997C1.40548 10.2667 1.21895 10.3439 1.08143 10.4815C0.9439 10.619 0.866638 10.8055 0.866638 11C0.866638 11.1945 0.9439 11.381 1.08143 11.5185C1.21895 11.6561 1.40548 11.7333 1.59997 11.7333H2.6743L2.16464 12.386C2.04503 12.5397 1.99135 12.7345 2.01542 12.9277C2.03948 13.121 2.13932 13.2967 2.29297 13.4163C2.44662 13.5359 2.64149 13.5896 2.83472 13.5656C3.02794 13.5415 3.20369 13.4417 3.32331 13.288L4.53331 11.7333H9.72971L6.05534 15.4077L4.10027 15.1639C3.90704 15.1396 3.71207 15.193 3.55825 15.3124C3.40443 15.4319 3.30435 15.6075 3.28004 15.8008C3.25573 15.994 3.30917 16.189 3.42861 16.3428C3.54805 16.4966 3.72371 16.5967 3.91694 16.621L4.73901 16.7222L3.98111 17.4819C3.84752 17.6202 3.77361 17.8055 3.77528 17.9978C3.77695 18.19 3.85407 18.374 3.99004 18.5099C4.126 18.6459 4.30993 18.723 4.50221 18.7247C4.69449 18.7264 4.87973 18.6525 5.01804 18.5189L5.77777 17.7591L5.87897 18.5812C5.90328 18.7744 6.00336 18.9501 6.15718 19.0695C6.31101 19.189 6.50598 19.2424 6.69921 19.2181C6.89243 19.1938 7.06809 19.0937 7.18753 18.9399C7.30697 18.7861 7.36042 18.5911 7.33611 18.3979L7.09227 16.4428L10.7666 12.7703V17.9667L9.21197 19.1767C9.05832 19.2963 8.95848 19.472 8.93442 19.6653C8.91035 19.8585 8.96403 20.0534 9.08364 20.207C9.20325 20.3607 9.379 20.4605 9.57223 20.4846C9.76545 20.5086 9.96032 20.455 10.114 20.3353L10.7666 19.8257V20.9C10.7666 21.0945 10.8439 21.281 10.9814 21.4186C11.119 21.5561 11.3055 21.6333 11.5 21.6333C11.6945 21.6333 11.881 21.5561 12.0185 21.4186C12.156 21.281 12.2333 21.0945 12.2333 20.9V19.8257L12.886 20.3353C13.0396 20.455 13.2345 20.5086 13.4277 20.4846C13.6209 20.4605 13.7967 20.3607 13.9163 20.207C14.0359 20.0534 14.0896 19.8585 14.0655 19.6653C14.0415 19.472 13.9416 19.2963 13.788 19.1767L12.2333 17.9667V12.7703L15.9077 16.4446L15.6638 18.3997C15.6395 18.5929 15.693 18.7879 15.8124 18.9417C15.9319 19.0956 16.1075 19.1956 16.3007 19.2199C16.494 19.2442 16.6889 19.1908 16.8428 19.0714C16.9966 18.9519 17.0967 18.7763 17.121 18.583L17.2222 17.761L17.9819 18.5207C18.1202 18.6543 18.3055 18.7282 18.4977 18.7265C18.69 18.7249 18.8739 18.6477 19.0099 18.5118C19.1459 18.3758 19.223 18.1919 19.2247 17.9996C19.2263 17.8073 19.1524 17.6221 19.0188 17.4838L18.2591 16.724L19.0812 16.6228C19.2744 16.5985 19.4501 16.4984 19.5695 16.3446C19.6889 16.1908 19.7424 15.9958 19.7181 15.8026C19.6938 15.6094 19.5937 15.4337 19.4399 15.3143C19.286 15.1948 19.0911 15.1414 18.8978 15.1657L16.9428 15.4095L13.2702 11.7333H18.4666L19.6766 13.288C19.7963 13.4417 19.972 13.5415 20.1652 13.5656C20.3585 13.5896 20.5533 13.5359 20.707 13.4163C20.8606 13.2967 20.9605 13.121 20.9845 12.9277C21.0086 12.7345 20.9549 12.5397 20.8353 12.386L20.3256 11.7333H21.4C21.5945 11.7333 21.781 11.6561 21.9185 11.5185C22.056 11.381 22.1333 11.1945 22.1333 11C22.1333 10.8055 22.056 10.619 21.9185 10.4815C21.781 10.3439 21.5945 10.2667 21.4 10.2667Z" fill="#747288"/>
<path d="M11.5836 1.32514C11.5836 1.2008 11.4828 1.10001 11.3584 1.10001C11.2341 1.10001 11.1333 1.2008 11.1333 1.32514V2.34154C11.1333 2.46588 11.2341 2.56667 11.3584 2.56667C11.4828 2.56667 11.5836 2.46588 11.5836 2.34154V1.32514Z" fill="#747288"/>
<path d="M4.7169 4.09969C4.62898 4.01177 4.48643 4.01177 4.39851 4.09969C4.31059 4.18761 4.31059 4.33015 4.39851 4.41807L5.11722 5.13678C5.20514 5.2247 5.34768 5.2247 5.4356 5.13678C5.52352 5.04886 5.52352 4.90631 5.4356 4.81839L4.7169 4.09969Z" fill="#747288"/>
<path d="M1.82511 10.9164C1.70077 10.9164 1.59998 11.0172 1.59998 11.1415C1.59998 11.2659 1.70077 11.3667 1.82511 11.3667H2.84151C2.96585 11.3667 3.06664 11.2659 3.06664 11.1415C3.06664 11.0172 2.96585 10.9164 2.84151 10.9164H1.82511Z" fill="#747288"/>
<path d="M4.59844 17.7843C4.51052 17.8722 4.51052 18.0148 4.59844 18.1027C4.68636 18.1906 4.8289 18.1906 4.91682 18.1027L5.63553 17.384C5.72345 17.2961 5.72345 17.1535 5.63553 17.0656C5.54761 16.9777 5.40506 16.9777 5.31714 17.0656L4.59844 17.7843Z" fill="#747288"/>
<path d="M11.4164 20.6749C11.4164 20.7992 11.5172 20.9 11.6415 20.9C11.7658 20.9 11.8666 20.7992 11.8666 20.6749V19.6585C11.8666 19.5341 11.7658 19.4333 11.6415 19.4333C11.5172 19.4333 11.4164 19.5341 11.4164 19.6585V20.6749Z" fill="#747288"/>
<path d="M18.2855 17.9003C18.3734 17.9883 18.5159 17.9883 18.6039 17.9003C18.6918 17.8124 18.6918 17.6699 18.6039 17.582L17.8852 16.8633C17.7972 16.7753 17.6547 16.7753 17.5668 16.8633C17.4789 16.9512 17.4789 17.0937 17.5668 17.1816L18.2855 17.9003Z" fill="#747288"/>
<path d="M21.1748 11.0836C21.2992 11.0836 21.4 10.9828 21.4 10.8585C21.4 10.7341 21.2992 10.6333 21.1748 10.6333H20.1584C20.0341 10.6333 19.9333 10.7341 19.9333 10.8585C19.9333 10.9828 20.0341 11.0836 20.1584 11.0836H21.1748Z" fill="#747288"/>
<path d="M18.3991 4.21571C18.487 4.12779 18.487 3.98524 18.3991 3.89732C18.3111 3.8094 18.1686 3.8094 18.0807 3.89732L17.362 4.61603C17.2741 4.70395 17.2741 4.84649 17.362 4.93441C17.4499 5.02233 17.5924 5.02233 17.6804 4.93441L18.3991 4.21571Z" fill="#747288"/>
</g>
<defs>
<clipPath id="clip0_582_75">
<rect width="22" height="22" fill="white" transform="translate(0.5)"/>
</clipPath>
</defs>
</svg>
