<svg width="25" height="24" viewBox="0 0 25 24" fill="none" xmlns="http://www.w3.org/2000/svg">
<path fill-rule="evenodd" clip-rule="evenodd" d="M2.73242 7.30214V18.4645C2.73242 18.9266 3.10748 19.3017 3.5696 19.3017C4.03172 19.3017 4.40677 18.9266 4.40677 18.4645V7.30214C4.40677 6.84002 4.03172 6.46497 3.5696 6.46497C3.10748 6.46497 2.73242 6.84002 2.73242 7.30214Z" fill="#747288"/>
<path fill-rule="evenodd" clip-rule="evenodd" d="M11.6641 7.30214V18.4645C11.6641 18.9266 12.0391 19.3017 12.5012 19.3017C12.9634 19.3017 13.3384 18.9266 13.3384 18.4645V7.30214C13.3384 6.84002 12.9634 6.46497 12.5012 6.46497C12.0391 6.46497 11.6641 6.84002 11.6641 7.30214Z" fill="#747288"/>
<path fill-rule="evenodd" clip-rule="evenodd" d="M20.5922 7.30214V11.7671C20.5922 11.9211 20.4672 12.0461 20.3131 12.0461H3.5696C3.10748 12.0461 2.73242 12.4212 2.73242 12.8833C2.73242 13.3454 3.10748 13.7205 3.5696 13.7205H20.3131C21.3925 13.7205 22.2665 12.8454 22.2665 11.7671C22.2665 10.1385 22.2665 7.30214 22.2665 7.30214C22.2665 6.84002 21.8915 6.46497 21.4294 6.46497C20.9672 6.46497 20.5922 6.84002 20.5922 7.30214Z" fill="#747288"/>
<circle cx="3.5" cy="5" r="3" fill="#747288"/>
<circle cx="12.5" cy="5" r="3" fill="#747288"/>
<circle cx="3.5" cy="20" r="3" fill="#747288"/>
<circle cx="12.5" cy="20" r="3" fill="#747288"/>
<circle cx="21.5" cy="20" r="3" fill="#747288"/>
<circle cx="21.5" cy="5" r="3" fill="#747288"/>
</svg>
