<svg width="18" height="22" viewBox="0 0 18 22" fill="none" xmlns="http://www.w3.org/2000/svg">
<path d="M17.6218 3.25317L15.8718 1.50316C15.7009 1.33225 15.424 1.33225 15.2532 1.50316C15.0822 1.67407 15.0822 1.95093 15.2532 2.1218L16.6938 3.56247L15.2532 5.00315C15.1711 5.08518 15.125 5.19625 15.125 5.31249V6.62499C15.125 7.59017 15.9099 8.375 16.875 8.375V15.8125C16.875 16.0539 16.6789 16.25 16.4375 16.25C16.1961 16.25 16 16.0539 16 15.8125V14.9375C16 14.2137 15.4112 13.625 14.6875 13.625H14.25V2.25001C14.25 1.28483 13.4652 0.5 12.5 0.5H3.75C2.78486 0.5 1.99998 1.28483 1.99998 2.25001V18C1.03484 18 0.249969 18.7848 0.249969 19.75V21.0625C0.249969 21.3044 0.445655 21.5 0.687483 21.5H15.5625C15.8043 21.5 16 21.3044 16 21.0625V19.75C16 18.7849 15.2152 18 14.25 18V14.5H14.6875C14.9289 14.5 15.125 14.6961 15.125 14.9375V15.8125C15.125 16.5363 15.7138 17.125 16.4375 17.125C17.1613 17.125 17.75 16.5363 17.75 15.8125V3.56251C17.75 3.44628 17.7038 3.33521 17.6218 3.25317ZM12.5 7.94561C12.5 8.18744 12.3043 8.38312 12.0625 8.38312H4.18747C3.94564 8.38312 3.74996 8.18744 3.74996 7.94561V2.68749C3.74996 2.44566 3.94564 2.24997 4.18747 2.24997H12.0625C12.3043 2.24997 12.5 2.44566 12.5 2.68749V7.94561Z" fill="#747288"/>
</svg>
