<svg width="28" height="28" viewBox="0 0 28 28" fill="none" xmlns="http://www.w3.org/2000/svg">
<path d="M13.1289 16.7552C12.9881 17.0971 12.9886 17.4728 13.1306 17.8142C13.2726 18.1555 13.5388 18.4209 13.8804 18.5618C14.0496 18.6315 14.2265 18.6668 14.4071 18.6668C14.9699 18.6668 15.4722 18.3305 15.6864 17.81C15.8752 17.3527 15.6688 15.9897 15.4064 14.8596C14.4242 15.4764 13.3174 16.2982 13.1289 16.7552Z" fill="#747288"/>
<path d="M24.9782 18.4422C24.6691 18.4422 24.4182 18.1913 24.4182 17.8822C24.4182 17.5731 24.6691 17.3222 24.9782 17.3222H26.8657C26.7873 15.4944 26.3259 13.7645 25.5604 12.21L23.9154 13.0278C23.8353 13.0676 23.7502 13.0864 23.6664 13.0864C23.4606 13.0864 23.2624 12.9724 23.1644 12.7756C23.0269 12.4989 23.1395 12.1626 23.4164 12.0249L25.0228 11.226C24.1674 9.81512 23.0488 8.58088 21.7358 7.59136L20.2672 9.0566C20.158 9.16552 20.015 9.22012 19.8719 9.22012C19.7282 9.22012 19.5849 9.16524 19.4754 9.05548C19.257 8.83652 19.2576 8.48204 19.4765 8.26364L20.7956 6.94764C18.97 5.80916 16.8414 5.1142 14.5597 5.0162V7.08876C14.5597 7.39788 14.3088 7.64876 13.9997 7.64876C13.6906 7.64876 13.4397 7.39788 13.4397 7.08876V5.0162C11.158 5.11448 9.02944 5.80916 7.20384 6.94764L8.5232 8.26364C8.74216 8.48204 8.74272 8.83652 8.52404 9.05548C8.41456 9.16524 8.2712 9.22012 8.12756 9.22012C7.98448 9.22012 7.8414 9.16552 7.73192 9.0566L6.26304 7.59164C4.95012 8.58116 3.83152 9.81512 2.9764 11.226L4.58276 12.0246C4.85968 12.1621 4.9728 12.4981 4.83504 12.7753C4.73704 12.9721 4.53908 13.0861 4.33328 13.0861C4.24956 13.0861 4.16444 13.0673 4.08436 13.0276L2.43936 12.21C1.67356 13.7645 1.21268 15.4941 1.134 17.3222H3.02148C3.3306 17.3222 3.58148 17.5731 3.58148 17.8822C3.58148 18.1913 3.3306 18.4422 3.02148 18.4422H1.13484C1.20176 20.0155 1.5512 21.5387 2.17392 22.9838H25.8258C26.4488 21.5393 26.7982 20.0158 26.8649 18.4422H24.9782ZM16.7222 18.237C16.3341 19.1783 15.4255 19.7868 14.4071 19.7868C14.0792 19.7868 13.7584 19.7226 13.4534 19.5969C12.8352 19.3421 12.3533 18.8616 12.0963 18.2442C11.8392 17.6268 11.8384 16.9464 12.0932 16.3282C12.5524 15.2141 15.0013 13.7813 15.4874 13.5055C15.6374 13.4204 15.8183 13.4092 15.9774 13.475C16.1364 13.5408 16.2568 13.676 16.303 13.8421C16.4539 14.3805 17.1814 17.1228 16.7222 18.237Z" fill="#747288"/>
</svg>
